<mxfile host="Electron" modified="2024-05-12T20:47:05.502Z" agent="Mozilla/5.0 (Windows NT 10.0; Win64; x64) AppleWebKit/537.36 (KHTML, like Gecko) draw.io/24.2.5 Chrome/120.0.6099.109 Electron/28.1.0 Safari/537.36" etag="8rcKjgUuQvl_j8qPTfkg" version="24.2.5" type="device">
  <diagram name="Pagina-1" id="QI2gKdlKlqPeXvp3Vsb9">
    <mxGraphModel dx="250" dy="146" grid="1" gridSize="10" guides="1" tooltips="1" connect="1" arrows="1" fold="1" page="1" pageScale="1" pageWidth="827" pageHeight="1169" math="0" shadow="0">
      <root>
        <mxCell id="0" />
        <mxCell id="1" parent="0" />
        <mxCell id="2bw9YM-l5TP1A-KqZ3UA-1" style="edgeStyle=orthogonalEdgeStyle;rounded=0;orthogonalLoop=1;jettySize=auto;html=1;exitX=0.25;exitY=0;exitDx=0;exitDy=0;endArrow=oval;endFill=0;" edge="1" parent="1">
          <mxGeometry relative="1" as="geometry">
            <mxPoint x="374.87333333333345" y="154.73000000000002" as="targetPoint" />
            <mxPoint x="375.0399999999999" y="170.98000000000002" as="sourcePoint" />
          </mxGeometry>
        </mxCell>
        <mxCell id="2bw9YM-l5TP1A-KqZ3UA-2" style="edgeStyle=orthogonalEdgeStyle;rounded=0;orthogonalLoop=1;jettySize=auto;html=1;exitX=0.75;exitY=0;exitDx=0;exitDy=0;endArrow=oval;endFill=0;" edge="1" parent="1">
          <mxGeometry relative="1" as="geometry">
            <mxPoint x="420.56999999999994" y="154.73000000000002" as="targetPoint" />
            <mxPoint x="422.0699999999999" y="170.98000000000002" as="sourcePoint" />
          </mxGeometry>
        </mxCell>
        <mxCell id="2bw9YM-l5TP1A-KqZ3UA-3" value="&lt;font style=&quot;font-size: 8px;&quot;&gt;Nome&lt;/font&gt;" style="text;html=1;align=center;verticalAlign=middle;whiteSpace=wrap;rounded=1;strokeColor=none;" vertex="1" parent="1">
          <mxGeometry x="284.14" y="198.48" width="40" height="20" as="geometry" />
        </mxCell>
        <mxCell id="2bw9YM-l5TP1A-KqZ3UA-4" value="&lt;font style=&quot;font-size: 8px;&quot;&gt;Descrizione&lt;/font&gt;" style="text;html=1;align=center;verticalAlign=middle;whiteSpace=wrap;rounded=1;strokeColor=none;" vertex="1" parent="1">
          <mxGeometry x="402.85999999999996" y="134.73" width="40" height="20" as="geometry" />
        </mxCell>
        <mxCell id="2bw9YM-l5TP1A-KqZ3UA-5" value="&lt;font style=&quot;font-size: 8px;&quot;&gt;Durata&lt;/font&gt;" style="text;html=1;align=center;verticalAlign=middle;whiteSpace=wrap;rounded=1;strokeColor=none;" vertex="1" parent="1">
          <mxGeometry x="453.86" y="166.98000000000002" width="40" height="20" as="geometry" />
        </mxCell>
        <mxCell id="2bw9YM-l5TP1A-KqZ3UA-6" value="&lt;font style=&quot;font-size: 8px;&quot;&gt;Luogo&lt;/font&gt;" style="text;html=1;align=center;verticalAlign=middle;whiteSpace=wrap;rounded=1;strokeColor=none;" vertex="1" parent="1">
          <mxGeometry x="452.86" y="180.48000000000002" width="40" height="20" as="geometry" />
        </mxCell>
        <mxCell id="2bw9YM-l5TP1A-KqZ3UA-7" style="edgeStyle=orthogonalEdgeStyle;rounded=0;orthogonalLoop=1;jettySize=auto;html=1;exitX=1;exitY=0.5;exitDx=0;exitDy=0;endArrow=oval;endFill=0;" edge="1" parent="1">
          <mxGeometry relative="1" as="geometry">
            <mxPoint x="432.86" y="178.78" as="sourcePoint" />
            <mxPoint x="455.98" y="178.78" as="targetPoint" />
          </mxGeometry>
        </mxCell>
        <mxCell id="2bw9YM-l5TP1A-KqZ3UA-8" style="edgeStyle=orthogonalEdgeStyle;rounded=0;orthogonalLoop=1;jettySize=auto;html=1;exitX=1;exitY=0.5;exitDx=0;exitDy=0;endArrow=oval;endFill=0;" edge="1" parent="1">
          <mxGeometry relative="1" as="geometry">
            <mxPoint x="432.86" y="192.48000000000002" as="sourcePoint" />
            <mxPoint x="455.86" y="192.48000000000002" as="targetPoint" />
            <Array as="points">
              <mxPoint x="448.86" y="192.48000000000002" />
            </Array>
          </mxGeometry>
        </mxCell>
        <mxCell id="2bw9YM-l5TP1A-KqZ3UA-11" style="edgeStyle=orthogonalEdgeStyle;rounded=0;orthogonalLoop=1;jettySize=auto;html=1;exitX=0.75;exitY=0;exitDx=0;exitDy=0;endArrow=oval;endFill=0;" edge="1" parent="1">
          <mxGeometry relative="1" as="geometry">
            <mxPoint x="351.6" y="211.43" as="targetPoint" />
            <mxPoint x="350.2299999999999" y="194.71000000000004" as="sourcePoint" />
          </mxGeometry>
        </mxCell>
        <mxCell id="2bw9YM-l5TP1A-KqZ3UA-12" style="edgeStyle=orthogonalEdgeStyle;rounded=0;orthogonalLoop=1;jettySize=auto;html=1;exitX=0.004;exitY=0.941;exitDx=0;exitDy=0;endArrow=oval;endFill=0;exitPerimeter=0;" edge="1" parent="1" source="2bw9YM-l5TP1A-KqZ3UA-20">
          <mxGeometry relative="1" as="geometry">
            <mxPoint x="339.43000000000006" y="209.7" as="sourcePoint" />
            <mxPoint x="320" y="210" as="targetPoint" />
            <Array as="points">
              <mxPoint x="332" y="197" />
              <mxPoint x="332" y="210" />
            </Array>
          </mxGeometry>
        </mxCell>
        <mxCell id="2bw9YM-l5TP1A-KqZ3UA-13" value="&lt;font style=&quot;font-size: 8px;&quot;&gt;Causa&lt;/font&gt;" style="text;html=1;align=center;verticalAlign=middle;whiteSpace=wrap;rounded=1;strokeColor=none;" vertex="1" parent="1">
          <mxGeometry x="331.81" y="209.71" width="40" height="15" as="geometry" />
        </mxCell>
        <mxCell id="2bw9YM-l5TP1A-KqZ3UA-14" value="&lt;font style=&quot;font-size: 8px;&quot;&gt;Data&lt;/font&gt;" style="text;html=1;align=center;verticalAlign=middle;whiteSpace=wrap;rounded=1;strokeColor=none;" vertex="1" parent="1">
          <mxGeometry x="353.5" y="134.73" width="40" height="20" as="geometry" />
        </mxCell>
        <mxCell id="2bw9YM-l5TP1A-KqZ3UA-15" style="edgeStyle=orthogonalEdgeStyle;rounded=0;orthogonalLoop=1;jettySize=auto;html=1;exitX=0.75;exitY=0;exitDx=0;exitDy=0;endArrow=oval;endFill=0;" edge="1" parent="1">
          <mxGeometry relative="1" as="geometry">
            <mxPoint x="420" y="211" as="targetPoint" />
            <mxPoint x="418.6200000000001" y="194.71" as="sourcePoint" />
          </mxGeometry>
        </mxCell>
        <mxCell id="2bw9YM-l5TP1A-KqZ3UA-16" value="&lt;font style=&quot;font-size: 8px;&quot;&gt;Significato&lt;/font&gt;&lt;div style=&quot;line-height: 20%;&quot;&gt;&lt;font style=&quot;font-size: 8px;&quot;&gt;Storico&lt;/font&gt;&lt;/div&gt;" style="text;html=1;align=center;verticalAlign=middle;whiteSpace=wrap;rounded=1;strokeColor=none;" vertex="1" parent="1">
          <mxGeometry x="423.42" y="201.81" width="40" height="20" as="geometry" />
        </mxCell>
        <mxCell id="2bw9YM-l5TP1A-KqZ3UA-18" style="edgeStyle=orthogonalEdgeStyle;rounded=0;orthogonalLoop=1;jettySize=auto;html=1;endArrow=oval;endFill=0;" edge="1" parent="1">
          <mxGeometry relative="1" as="geometry">
            <mxPoint x="387.88" y="226.81" as="targetPoint" />
            <mxPoint x="387.88" y="196.81" as="sourcePoint" />
          </mxGeometry>
        </mxCell>
        <mxCell id="2bw9YM-l5TP1A-KqZ3UA-19" value="&lt;font style=&quot;font-size: 8px;&quot;&gt;TIPO&lt;/font&gt;" style="text;html=1;align=center;verticalAlign=middle;whiteSpace=wrap;rounded=1;strokeColor=none;" vertex="1" parent="1">
          <mxGeometry x="368.49" y="224.71" width="40" height="17" as="geometry" />
        </mxCell>
        <mxCell id="2bw9YM-l5TP1A-KqZ3UA-20" value="Esperienza" style="whiteSpace=wrap;html=1;align=center;" vertex="1" parent="1">
          <mxGeometry x="342.85999999999996" y="169.73000000000002" width="90" height="28.75" as="geometry" />
        </mxCell>
        <mxCell id="2bw9YM-l5TP1A-KqZ3UA-21" value="" style="curved=1;endArrow=oval;html=1;rounded=0;endFill=1;" edge="1" parent="1">
          <mxGeometry width="50" height="50" relative="1" as="geometry">
            <mxPoint x="344" y="200.48" as="sourcePoint" />
            <mxPoint x="334" y="189.48" as="targetPoint" />
            <Array as="points">
              <mxPoint x="334" y="200.48" />
            </Array>
          </mxGeometry>
        </mxCell>
        <mxCell id="2bw9YM-l5TP1A-KqZ3UA-24" style="edgeStyle=orthogonalEdgeStyle;rounded=0;orthogonalLoop=1;jettySize=auto;html=1;exitX=0.25;exitY=0;exitDx=0;exitDy=0;endArrow=oval;endFill=0;" edge="1" parent="1">
          <mxGeometry relative="1" as="geometry">
            <mxPoint x="340" y="153" as="targetPoint" />
            <mxPoint x="349.7899999999999" y="169.73000000000002" as="sourcePoint" />
            <Array as="points">
              <mxPoint x="350" y="160" />
              <mxPoint x="340" y="160" />
            </Array>
          </mxGeometry>
        </mxCell>
        <mxCell id="2bw9YM-l5TP1A-KqZ3UA-25" value="&lt;font style=&quot;font-size: 8px;&quot;&gt;Mestiere&lt;/font&gt;" style="text;html=1;align=center;verticalAlign=middle;whiteSpace=wrap;rounded=1;strokeColor=none;" vertex="1" parent="1">
          <mxGeometry x="319.87" y="133.5" width="40" height="20" as="geometry" />
        </mxCell>
      </root>
    </mxGraphModel>
  </diagram>
</mxfile>
